<!DOCTYPE svg PUBLIC "-//W3C//DTD SVG 1.1//EN" "http://www.w3.org/Graphics/SVG/1.1/DTD/svg11.dtd">
<!-- Uploaded to: SVG Repo, www.svgrepo.com, Transformed by: SVG Repo Mixer Tools -->
<svg fill="#7ff0bb" width="800px" height="800px" viewBox="0 0 32.00 32.00" version="1.1" xmlns="http://www.w3.org/2000/svg" stroke="#7ff0bb" transform="matrix(1, 0, 0, 1, 0, 0)">
<g id="SVGRepo_bgCarrier" stroke-width="0"/>
<g id="SVGRepo_tracerCarrier" stroke-linecap="round" stroke-linejoin="round"/>
<g id="SVGRepo_iconCarrier"> <title>crystals</title> <path d="M16.8 3.758l-4.2 3.484 1.873 13.766 2.425 1.701 2.568-1.602 1.467-13.734zM24.099 12.916l2.536-4.49-1.026-2.075-1.77 0.788-1.7 4.957 0.396 1.981zM9.212 11.169l0.217-1.719-2.474-3.701-1.645-0.672-0.138 1.823 2.474 3.7zM27.561 14.647l-3.429 0.741-4.414 10.572 0.968 2.151 2.942-0.199 5.344-10.054zM6.158 13.534l-1.217 4.057 6.326 9.969 2.27 0.725 0.61-1.87-4.064-12.622z"/> </g>
</svg>